<svg width="31" height="31" viewBox="0 0 31 31" fill="none" xmlns="http://www.w3.org/2000/svg">
<g id="SVG" clip-path="url(#clip0_1_1128)">
<g id="Group">
<path id="CalcIconRectangle-2" d="M29.67 15.84H15.67V29.84H29.67V15.84Z" fill="white"/>
<path id="CalcIconPath-1" d="M0.669983 16.59V15.09H30.67V16.59H0.669983Z" fill="#99A2AA"/>
<g id="Group_2">
<path id="CalcIconLine-1" d="M5.66998 8.34003H11.67" stroke="#99A2AA" stroke-width="1.5" stroke-linecap="round"/>
<path id="CalcIconLine-2" d="M8.66998 5.34003V11.34" stroke="#99A2AA" stroke-width="1.5" stroke-linecap="round"/>
<g id="Group_3">
<path id="CalcIconLine-3" d="M6.54865 21.2188L10.7913 25.4614" stroke="#99A2AA" stroke-width="1.5" stroke-linecap="round"/>
<path id="CalcIconLine-4" d="M10.7913 21.2188L6.54868 25.4614" stroke="#99A2AA" stroke-width="1.5" stroke-linecap="round"/>
</g>
</g>
<path id="CalcIconRectangle-1" d="M2.16998 2.34003V29.34H29.17V2.34003H2.16998ZM1.66998 0.840027H29.67C30.2223 0.840027 30.67 1.28774 30.67 1.84003V29.84C30.67 30.3923 30.2223 30.84 29.67 30.84H1.66998C1.1177 30.84 0.669983 30.3923 0.669983 29.84V1.84003C0.669983 1.28774 1.1177 0.840027 1.66998 0.840027Z" fill="#99A2AA"/>
<path id="CalcIconPath-2" d="M14.92 0.840027H16.42V30.84H14.92V0.840027Z" fill="#99A2AA"/>
<g id="Group_4">
<path id="CalcIconLine-5" d="M19.67 8.34003H25.67" stroke="#99A2AA" stroke-width="1.5" stroke-linecap="round"/>
<path id="CalcIconLine-6" d="M19.67 21.34H25.67" stroke="#99A2AA" stroke-width="1.5" stroke-linecap="round"/>
<path id="CalcIconLine-7" d="M19.67 25.34H25.67" stroke="#99A2AA" stroke-width="1.5" stroke-linecap="round"/>
</g>
</g>
</g>
<defs>
<clipPath id="clip0_1_1128">
<rect width="30" height="30" fill="white" transform="translate(0.669983 0.840027)"/>
</clipPath>
</defs>
</svg>
